<?xml version="1.0" standalone="no"?>
<!DOCTYPE svg PUBLIC "-//W3C//DTD SVG 20010904//EN"
 "http://www.w3.org/TR/2001/REC-SVG-20010904/DTD/svg10.dtd">
<svg version="1.0" xmlns="http://www.w3.org/2000/svg"
 width="184.000000pt" height="194.000000pt" viewBox="0 0 184.000000 194.000000"
 preserveAspectRatio="xMidYMid meet">

<g transform="translate(0.000000,194.000000) scale(0.100000,-0.100000)"
fill="#000000" stroke="none">
<path d="M880 1839 c-44 -27 -250 -149 -254 -149 -2 0 -66 -37 -142 -83 -77
-46 -175 -103 -219 -127 -44 -24 -90 -54 -102 -67 l-23 -22 0 -420 c0 -235 4
-430 9 -444 7 -17 46 -45 128 -91 65 -37 179 -104 253 -148 201 -120 379 -218
397 -218 21 0 159 79 576 327 59 35 120 69 136 74 30 10 46 33 36 50 -3 4 -23
16 -43 26 -20 9 -62 32 -93 50 -66 39 -71 38 -177 -31 -37 -24 -89 -55 -117
-70 -27 -15 -57 -31 -65 -36 -146 -90 -242 -140 -266 -140 -9 0 -56 24 -103
53 -116 72 -216 132 -322 192 -144 82 -129 35 -129 405 l0 320 43 21 c23 12
85 47 137 79 52 32 144 85 204 119 59 34 118 68 129 76 35 25 70 17 158 -32
46 -25 98 -53 114 -61 17 -9 59 -34 95 -57 120 -77 239 -137 259 -130 10 3 46
23 79 44 32 21 68 42 80 45 36 12 34 34 -6 54 -57 29 -193 105 -463 260 -136
78 -258 142 -270 141 -13 0 -31 -4 -39 -10z"/>
<path d="M835 1421 c-44 -26 -134 -78 -200 -116 -66 -37 -126 -74 -132 -83
-14 -17 -19 -419 -7 -481 6 -27 21 -40 113 -95 143 -85 309 -176 321 -176 14
0 128 58 162 82 15 10 78 47 140 82 61 34 113 67 115 73 5 13 -78 63 -103 63
-10 0 -51 -21 -93 -46 -42 -25 -85 -50 -96 -57 -95 -53 -121 -67 -131 -67 -5
0 -49 24 -96 54 -47 30 -106 64 -130 76 -90 42 -88 37 -88 239 0 160 2 180 18
194 10 10 22 17 26 17 4 0 31 15 59 34 29 19 79 48 112 66 33 18 66 37 73 42
18 16 60 4 132 -38 36 -20 81 -45 100 -56 19 -11 47 -29 62 -39 14 -11 35 -19
47 -19 29 0 111 41 111 56 0 7 -66 49 -147 94 -82 44 -175 96 -208 115 -33 19
-64 35 -70 35 -5 0 -46 -22 -90 -49z"/>
<path d="M1645 1141 c-6 -5 -92 -43 -193 -84 -101 -41 -186 -78 -189 -81 -10
-9 6 -36 21 -36 8 0 96 -36 195 -80 163 -72 221 -91 221 -74 0 3 -14 34 -30
68 -47 97 -49 125 -10 201 32 62 34 95 7 95 -7 0 -17 -4 -22 -9z"/>
</g>
</svg>
